<mxfile host="app.diagrams.net" modified="2022-11-17T05:56:38.170Z" agent="5.0 (Windows NT 10.0; Win64; x64) AppleWebKit/537.36 (KHTML, like Gecko) Chrome/107.0.0.0 Safari/537.36 Edg/107.0.1418.35" etag="8FXCAr3OALUJJ_pnXqB3" version="20.5.3" type="github">
  <diagram id="prtHgNgQTEPvFCAcTncT" name="Page-1">
    <mxGraphModel dx="969" dy="567" grid="1" gridSize="10" guides="1" tooltips="1" connect="1" arrows="1" fold="1" page="1" pageScale="1" pageWidth="827" pageHeight="1169" math="0" shadow="0">
      <root>
        <mxCell id="0" />
        <mxCell id="1" parent="0" />
        <mxCell id="dNxyNK7c78bLwvsdeMH5-11" value="Orgchart" style="swimlane;html=1;startSize=20;horizontal=1;containerType=tree;glass=0;" parent="1" vertex="1">
          <mxGeometry x="40" y="80" width="860" height="290" as="geometry" />
        </mxCell>
        <mxCell id="n69_QYQXAGHu2_i68GKL-10" value="Main Thread" style="rounded=1;whiteSpace=wrap;html=1;" vertex="1" parent="dNxyNK7c78bLwvsdeMH5-11">
          <mxGeometry x="80" y="65" width="120" height="60" as="geometry" />
        </mxCell>
        <mxCell id="n69_QYQXAGHu2_i68GKL-11" value="" style="edgeStyle=orthogonalEdgeStyle;rounded=0;orthogonalLoop=1;jettySize=auto;html=1;" edge="1" source="n69_QYQXAGHu2_i68GKL-10" target="n69_QYQXAGHu2_i68GKL-12" parent="dNxyNK7c78bLwvsdeMH5-11">
          <mxGeometry relative="1" as="geometry" />
        </mxCell>
        <mxCell id="n69_QYQXAGHu2_i68GKL-12" value="Controller" style="rounded=1;whiteSpace=wrap;html=1;" vertex="1" parent="dNxyNK7c78bLwvsdeMH5-11">
          <mxGeometry x="240" y="65" width="120" height="60" as="geometry" />
        </mxCell>
      </root>
    </mxGraphModel>
  </diagram>
</mxfile>
